<?xml version="1.0" standalone="no"?>
<!DOCTYPE svg PUBLIC "-//W3C//DTD SVG 20010904//EN"
 "http://www.w3.org/TR/2001/REC-SVG-20010904/DTD/svg10.dtd">
<svg version="1.0" xmlns="http://www.w3.org/2000/svg"
 width="700.000000pt" height="700.000000pt" viewBox="0 0 700.000000 700.000000"
 preserveAspectRatio="xMidYMid meet">
<metadata>
Created by potrace 1.14, written by Peter Selinger 2001-2017
</metadata>
<g transform="translate(0.000000,700.000000) scale(0.100000,-0.100000)"
fill="#000000" stroke="none">
<path d="M3278 6996 c-1 -2 -42 -6 -89 -10 -47 -4 -95 -8 -105 -10 -10 -2 -41
-7 -69 -10 -27 -4 -76 -11 -107 -17 -32 -5 -70 -12 -85 -15 -68 -12 -286 -67
-372 -95 -687 -219 -1273 -627 -1715 -1193 -159 -202 -329 -485 -421 -696 -21
-47 -45 -103 -55 -125 -47 -107 -122 -337 -156 -475 -10 -41 -55 -259 -59
-285 -13 -87 -16 -113 -20 -145 -27 -231 -27 -666 0 -831 2 -13 6 -46 10 -74
12 -98 22 -157 50 -285 69 -324 255 -784 418 -1038 26 -40 47 -75 47 -78 0 -2
4 -10 10 -17 5 -7 46 -64 91 -126 72 -103 179 -238 234 -297 240 -258 429
-422 682 -590 77 -52 145 -94 149 -94 4 0 15 -6 23 -14 27 -23 259 -139 390
-195 144 -62 311 -120 469 -162 111 -30 129 -34 187 -45 17 -3 48 -9 70 -14
48 -10 105 -19 160 -25 22 -3 51 -7 63 -9 132 -27 680 -28 844 -1 13 2 46 7
73 10 72 10 86 12 120 19 17 3 44 8 60 11 342 65 741 212 1039 384 49 28 93
51 97 51 5 0 9 5 9 10 0 6 5 10 10 10 15 0 220 141 330 227 151 117 324 281
450 422 36 41 70 79 75 85 25 26 146 188 197 261 108 156 243 396 312 555 16
36 36 83 46 105 52 119 150 429 176 560 15 74 44 237 48 270 3 22 8 62 12 90
3 27 8 61 11 75 8 48 10 525 3 605 -15 153 -21 210 -25 225 -2 8 -7 35 -10 60
-15 115 -77 371 -124 517 -212 650 -606 1221 -1141 1652 -324 261 -701 466
-1098 596 -162 54 -405 113 -532 130 -19 3 -46 7 -60 10 -13 2 -52 7 -86 11
-33 3 -74 8 -90 10 -33 5 -540 14 -546 10z m263 -422 c12 -3 18 -22 23 -72 9
-85 18 -163 22 -182 1 -8 3 -26 4 -40 1 -14 15 20 31 75 16 55 36 124 46 154
l16 53 86 -6 c47 -4 86 -8 87 -9 1 -1 4 -27 8 -57 11 -95 17 -144 21 -165 2
-11 4 -36 5 -55 1 -50 12 -26 50 115 42 152 43 156 78 150 15 -3 51 -7 80 -9
30 -2 55 -6 56 -8 2 -2 -36 -122 -83 -267 l-86 -263 -95 6 c-52 3 -96 6 -96 6
-1 0 -5 21 -9 48 -3 26 -8 58 -10 72 -2 14 -6 54 -10 90 -3 36 -8 74 -10 85
-2 11 -4 27 -5 35 0 8 -21 -50 -46 -130 -55 -179 -60 -191 -76 -185 -14 4
-109 14 -149 15 -24 0 -27 5 -33 48 -3 26 -8 58 -10 72 -6 34 -26 168 -31 208
-2 18 -6 45 -9 60 -3 15 -8 52 -11 82 -3 30 -9 63 -12 73 -4 17 1 18 74 12 43
-4 85 -8 94 -11z m-306 -261 c26 -137 49 -257 52 -269 4 -18 -2 -22 -53 -32
-32 -7 -67 -12 -78 -12 -17 0 -112 68 -216 153 -8 7 -30 23 -49 36 -30 22 -33
22 -27 5 12 -41 47 -236 42 -241 -5 -6 -149 -34 -152 -30 -1 2 -45 219 -59
297 -3 14 -9 48 -15 75 -5 28 -12 64 -15 80 -2 17 -7 42 -10 57 -6 25 -4 27
52 38 32 6 65 13 74 16 9 2 36 -11 60 -31 176 -139 233 -184 235 -182 1 1 -9
56 -22 122 -13 66 -22 125 -21 130 3 9 93 31 138 34 13 1 25 -44 64 -246z
m1379 47 c0 0 2 -131 4 -290 2 -230 0 -290 -10 -289 -7 0 -47 13 -88 28 l-75
28 2 40 2 41 -90 30 -90 31 -28 -31 -28 -32 -82 30 c-82 30 -82 30 -64 51 10
12 94 113 186 226 l168 204 96 -33 c52 -19 96 -34 97 -34z m-2129 -20 c14 -27
25 -53 25 -58 0 -5 -28 -22 -62 -37 -35 -16 -96 -43 -136 -62 l-72 -33 15 -30
c9 -17 19 -30 24 -30 9 0 87 34 170 74 30 14 56 25 57 23 1 -1 13 -27 27 -58
l24 -56 -106 -48 c-58 -26 -109 -51 -114 -54 -4 -4 -1 -24 8 -43 l15 -36 139
63 139 63 26 -60 c30 -69 30 -68 14 -68 -7 0 -26 -7 -43 -16 -16 -9 -73 -35
-125 -59 -52 -23 -130 -59 -174 -79 -43 -20 -80 -35 -81 -34 -2 2 -17 35 -35
73 -18 39 -68 148 -112 244 -43 96 -75 177 -71 182 4 4 53 27 108 52 55 25
132 59 170 77 103 48 129 59 137 60 4 0 19 -22 33 -50z m2545 -175 c38 -26 70
-48 70 -51 0 -3 -24 -41 -54 -84 l-54 -79 77 -50 c42 -28 80 -51 84 -51 4 0
30 35 58 78 28 42 55 76 59 75 8 -2 130 -79 138 -87 2 -3 -44 -78 -103 -168
-59 -90 -126 -191 -148 -225 -23 -35 -45 -63 -49 -63 -12 0 -138 84 -138 92 0
4 24 45 54 90 l54 83 -80 53 c-44 29 -81 52 -82 50 -2 -2 -27 -39 -56 -83 -29
-44 -54 -82 -56 -84 -7 -8 -145 92 -141 102 6 16 289 447 293 447 2 0 35 -20
74 -45z m-3116 -104 c20 -27 36 -53 36 -57 0 -5 -29 -31 -65 -57 -36 -27 -65
-51 -65 -55 0 -4 54 -79 120 -166 l119 -159 -71 -53 -71 -54 -119 160 c-66 88
-124 160 -129 160 -5 0 -15 -5 -22 -10 -7 -6 -35 -28 -64 -50 l-52 -41 -41 52
c-22 28 -39 56 -38 61 4 11 408 316 420 317 3 1 22 -21 42 -48z m3681 -309 c6
-4 29 -28 52 -52 l42 -45 -9 -65 c-5 -36 -11 -87 -14 -115 -13 -113 -18 -151
-22 -164 -6 -18 7 -7 91 71 33 31 72 65 86 77 l26 20 29 -32 c77 -86 79 -89
62 -101 -9 -6 -60 -52 -114 -102 -55 -50 -128 -117 -164 -149 -36 -33 -76 -69
-89 -81 l-24 -22 -51 55 -52 56 7 61 c5 34 11 90 15 126 3 36 10 87 14 113 4
26 4 46 0 45 -4 -2 -47 -39 -95 -83 -48 -44 -91 -81 -95 -83 -4 -1 -30 24 -59
56 l-51 60 92 83 c50 46 114 104 142 129 28 25 75 69 106 97 59 56 60 57 75
45z m-4211 -109 c24 -21 45 -40 45 -43 0 -3 -42 -54 -94 -115 l-94 -110 21
-22 c12 -13 26 -23 32 -22 6 0 45 40 86 90 41 49 79 89 85 89 5 -1 29 -18 52
-38 l41 -38 -79 -91 c-43 -51 -79 -96 -79 -101 0 -5 12 -19 26 -33 l26 -24 31
35 c67 75 142 163 150 176 13 22 29 16 76 -27 l44 -39 -20 -23 c-11 -12 -77
-89 -148 -172 -70 -82 -133 -153 -139 -157 -10 -5 -406 323 -414 344 -3 7 54
80 108 138 8 9 35 41 60 70 25 30 62 72 82 94 21 23 38 44 38 49 0 15 20 6 64
-30z m-360 -553 c54 -33 103 -60 107 -60 5 0 9 -4 9 -10 0 -5 4 -10 9 -10 17
0 231 -133 231 -144 0 -6 -20 -41 -43 -78 l-42 -67 -225 135 c-124 75 -229
139 -234 144 -8 8 70 150 83 150 4 0 51 -27 105 -60z m5065 14 c61 -40 123
-132 145 -219 15 -55 12 -95 -10 -140 -13 -27 -61 -72 -68 -63 -1 1 -19 34
-39 71 -35 65 -36 69 -21 92 20 31 13 63 -22 98 -26 27 -48 27 -58 0 -3 -8 6
-55 20 -105 32 -112 35 -179 8 -215 -31 -41 -65 -62 -117 -72 -87 -16 -169 43
-229 164 -53 105 -63 177 -34 233 14 26 64 72 79 72 3 0 23 -31 45 -69 39 -68
40 -70 21 -87 -24 -22 -24 -45 0 -93 24 -47 44 -63 66 -55 20 8 17 50 -8 150
-25 94 -26 111 -15 151 27 102 146 145 237 87z m-4949 -421 c41 -14 79 -29 84
-34 5 -4 -3 -42 -19 -87 l-27 -79 -92 33 c-51 17 -125 46 -165 63 -40 17 -76
31 -79 31 -3 0 24 -19 59 -42 35 -24 66 -45 69 -48 3 -3 42 -30 87 -60 45 -30
83 -59 83 -65 0 -5 -8 -36 -17 -68 l-18 -59 -100 6 c-134 7 -247 17 -263 22
-7 2 -11 0 -8 -4 3 -5 31 -14 63 -21 31 -8 100 -29 153 -47 52 -19 100 -37
107 -39 9 -3 5 -25 -14 -80 -20 -60 -29 -76 -42 -72 -40 12 -492 175 -496 179
-3 2 13 56 36 119 39 110 42 115 67 113 15 -2 59 -5 97 -8 39 -3 99 -9 135
-12 40 -3 61 -2 55 4 -5 5 -62 44 -125 87 -63 43 -119 81 -124 85 -7 7 27 117
64 207 9 22 10 22 182 -38 95 -34 207 -72 248 -86z m5249 -153 c35 -95 33
-110 -14 -125 -22 -7 -137 -46 -255 -88 l-216 -75 -23 72 c-12 39 -24 76 -27
82 -6 14 -15 10 211 89 99 34 205 72 235 83 30 11 58 21 61 21 4 1 16 -26 28
-59z m104 -314 c3 -7 8 -41 12 -77 l7 -64 -77 -90 c-42 -49 -95 -110 -117
-133 l-39 -44 48 6 c26 4 55 9 63 11 8 2 38 6 65 10 28 3 59 8 71 11 18 5 22
-1 31 -43 13 -70 11 -116 -7 -118 -8 -2 -33 -6 -55 -9 -112 -18 -164 -26 -205
-31 -25 -3 -56 -7 -70 -10 -51 -10 -86 -15 -136 -21 l-52 -6 -12 70 c-13 70
-13 72 13 106 15 19 32 40 39 48 70 74 168 199 152 195 -10 -3 -35 -8 -54 -11
-19 -4 -47 -8 -61 -10 -15 -2 -52 -7 -82 -11 l-55 -7 -11 64 c-15 90 -15 98
12 99 12 0 33 3 47 5 44 8 292 47 375 59 28 4 51 8 52 9 9 8 42 2 46 -8z
m-313 -716 c47 -5 108 -11 135 -14 59 -6 172 -18 200 -21 11 -1 30 -3 43 -4
22 -1 23 -3 16 -58 -9 -78 -12 -95 -21 -104 -5 -3 -71 -50 -147 -103 l-139
-96 39 -1 c21 -1 48 -3 59 -4 11 -1 51 -6 90 -9 38 -4 73 -10 77 -12 7 -4 4
-49 -6 -129 -3 -18 -17 -35 -26 -30 -5 3 -37 8 -72 10 -35 3 -79 7 -98 10 -19
3 -55 7 -80 10 -25 2 -79 7 -120 11 -41 4 -82 8 -90 10 -8 1 -26 3 -39 3 -23
1 -23 2 -17 73 4 40 9 75 11 78 2 4 67 51 144 105 77 55 139 100 138 101 -1 2
-38 6 -82 10 -44 4 -89 8 -100 10 -11 1 -33 3 -49 3 l-29 1 7 68 c3 37 6 73 6
80 0 15 34 15 150 2z m-5639 -583 c9 -35 13 -38 37 -32 15 3 36 7 47 9 11 3
52 11 90 20 39 8 82 17 95 20 14 2 67 14 117 25 51 12 98 21 105 21 20 0 -5
-18 -32 -23 -14 -3 -104 -22 -200 -42 -198 -42 -201 -43 -215 -44 -32 -3 -36
-17 -21 -77 25 -102 27 -114 18 -114 -4 0 -20 62 -36 138 -15 75 -32 150 -37
166 -5 16 -9 41 -8 55 1 24 6 8 40 -122z m508 -160 c-20 -17 -52 -46 -72 -64
l-36 -31 41 -110 41 -109 89 1 c49 1 92 -2 94 -6 6 -9 -10 -9 -326 -11 -160
-2 -215 1 -215 10 0 6 52 56 115 109 63 54 120 103 126 109 10 10 84 72 134
114 40 33 48 23 9 -12z m251 -486 c0 -5 -51 -37 -112 -71 -126 -70 -262 -146
-295 -167 l-23 -13 26 -48 c15 -26 35 -62 46 -79 11 -18 15 -33 10 -33 -11 0
-196 329 -190 336 5 4 68 -92 68 -104 0 -4 9 -18 18 -30 l19 -24 151 86 c83
47 153 86 156 86 3 0 31 16 63 35 65 39 63 38 63 26z m4425 -195 c44 -32 87
-63 95 -69 9 -7 38 -28 65 -47 28 -18 52 -37 55 -40 3 -3 26 -21 53 -39 26
-17 47 -34 47 -38 0 -16 -129 -184 -152 -197 -39 -24 -88 -20 -135 10 -48 32
-73 70 -73 113 0 35 7 48 71 140 25 37 48 71 52 77 4 6 -29 35 -78 69 -85 58
-127 95 -95 83 9 -3 51 -31 95 -62z m-4260 -65 c38 -22 82 -87 92 -137 10 -46
6 -94 -8 -94 -5 0 -7 19 -4 43 8 83 -74 197 -143 197 -66 0 -138 -71 -129
-127 3 -16 19 -57 36 -93 38 -82 44 -114 27 -155 -31 -73 -109 -101 -176 -64
-41 23 -99 97 -102 131 -5 55 -4 79 4 84 4 3 8 -13 8 -36 0 -22 6 -55 14 -73
19 -44 72 -95 110 -106 59 -16 136 43 136 105 0 15 -16 61 -35 104 -57 125
-43 189 49 231 44 21 73 18 121 -10z m3946 -234 c3 -4 76 -79 162 -166 86 -87
157 -161 157 -165 0 -10 -159 -160 -178 -168 -56 -22 -126 7 -169 71 -28 41
-29 86 -4 127 l19 32 -117 31 c-65 17 -124 31 -131 31 -9 0 -10 3 -4 9 5 6 39
1 84 -11 41 -11 100 -26 130 -34 l55 -13 57 56 57 57 -77 78 c-74 75 -108 121
-66 88 10 -8 22 -19 25 -23z m-3766 -8 c-4 -5 -15 -72 -41 -234 -2 -16 -7 -43
-10 -59 l-6 -28 73 6 73 6 63 62 c34 34 64 60 67 57 2 -2 -27 -38 -66 -79 -41
-43 -73 -70 -75 -62 -3 6 -8 10 -11 8 -4 -2 -45 -7 -92 -10 -47 -3 -112 -9
-145 -11 -127 -12 -185 -13 -185 -4 0 5 19 9 43 10 23 0 71 3 107 6 36 3 80 6
98 6 17 1 32 4 33 7 0 3 2 12 4 20 2 8 7 31 10 50 3 19 8 51 12 70 3 19 7 42
8 50 11 87 29 160 35 149 5 -7 7 -16 5 -20z m319 -316 c-1 -27 -5 -88 -8 -137
-6 -97 -3 -104 54 -134 44 -23 77 -52 59 -52 -8 0 -25 9 -37 20 -12 11 -24 20
-27 20 -3 0 -29 16 -58 35 -79 53 -133 45 -180 -28 -29 -44 -34 -81 -16 -119
9 -22 167 -138 186 -138 4 0 58 75 118 167 133 201 165 246 171 240 4 -3 -262
-415 -280 -433 -2 -3 -179 118 -193 131 -38 39 -38 103 1 162 42 64 108 84
167 52 14 -7 17 1 19 59 1 37 3 87 5 112 1 25 3 55 4 68 1 12 5 22 9 22 4 0 7
-21 6 -47z m3159 -29 c23 -16 59 -52 80 -79 126 -165 117 -302 -25 -376 -106
-55 -239 24 -318 187 -61 126 -34 223 76 283 56 30 131 24 187 -15z m-3403 -1
c-1 -14 -199 -217 -205 -211 -4 3 31 45 77 93 46 48 90 96 98 106 15 19 30 25
30 12z m753 -223 c125 -57 120 -39 51 -188 -24 -50 -44 -94 -44 -97 0 -2 -13
-32 -29 -67 -16 -35 -40 -86 -52 -114 l-23 -51 -30 12 c-90 38 -228 106 -224
110 5 5 26 -4 179 -73 l67 -30 46 105 c26 58 45 107 44 108 -2 1 -52 24 -113
50 -122 54 -120 53 -113 60 3 3 56 -17 118 -45 63 -28 116 -47 120 -43 13 15
93 203 89 207 -2 3 -54 27 -114 54 -60 27 -111 55 -113 61 -3 9 1 10 14 2 11
-6 68 -33 127 -61z m2245 32 c37 -24 25 -31 -18 -10 -48 24 -91 19 -135 -16
-51 -41 -44 -82 54 -288 46 -98 88 -178 92 -178 5 0 41 16 80 35 40 19 75 33
77 30 8 -7 5 -8 -86 -53 l-83 -41 -53 112 c-29 62 -65 137 -79 167 -61 130
-64 184 -10 227 50 41 112 47 161 15z m-323 -242 c41 -138 44 -151 80 -264 13
-43 22 -82 20 -87 -5 -6 -125 -47 -158 -53 -7 -1 -29 -8 -50 -15 -20 -7 -43
-11 -50 -8 -10 3 63 28 200 68 48 14 48 13 13 119 -10 30 -21 67 -25 83 -8 38
2 39 -242 -38 -7 -3 -13 -1 -13 3 0 5 54 25 121 46 99 31 119 40 115 54 -15
48 -58 189 -61 198 -2 8 -42 1 -121 -23 -65 -19 -122 -37 -126 -39 -4 -3 -8
-1 -8 5 0 5 33 19 73 31 39 12 97 30 127 40 30 9 58 15 61 11 4 -3 23 -62 44
-131z m-1584 73 c1 -10 2 -40 4 -68 1 -27 6 -117 10 -200 4 -82 8 -167 9 -187
0 -21 3 -38 6 -38 3 0 14 17 25 37 11 21 41 76 66 123 26 47 70 128 97 180 59
111 79 124 80 53 0 -64 12 -353 17 -425 2 -32 0 -58 -6 -58 -5 0 -9 10 -10 23
0 12 -2 63 -4 112 -2 50 -6 150 -9 224 -3 74 -7 136 -10 138 -2 2 -25 -38 -51
-89 -26 -51 -51 -97 -55 -103 -5 -5 -25 -41 -45 -80 -86 -163 -96 -178 -109
-157 -2 4 -8 73 -11 152 -16 325 -18 351 -25 343 -4 -5 -45 -80 -91 -168 -45
-88 -94 -182 -108 -209 -15 -27 -33 -52 -41 -54 -12 -4 -13 -2 -4 9 6 8 44 77
84 154 106 203 151 289 157 298 8 13 23 7 24 -10z m1173 -111 c8 -65 35 -268
41 -302 11 -62 17 -144 9 -137 -4 4 -9 13 -10 20 -1 7 -5 37 -8 67 -4 30 -9
66 -11 80 -3 14 -7 51 -11 83 -8 70 -4 73 -109 -83 -111 -163 -147 -212 -152
-206 -3 3 31 57 75 122 l81 116 -33 37 c-18 20 -57 63 -87 96 -29 33 -68 76
-85 95 -18 19 -31 37 -28 40 6 5 37 -27 170 -175 l70 -78 43 59 c38 52 42 64
37 99 -16 115 -17 140 -8 130 5 -5 13 -34 16 -63z m-524 -119 c-1 -82 -3 -193
-4 -248 l-1 -100 25 -2 c14 0 55 -1 93 -2 37 -1 67 -4 67 -9 0 -4 -39 -6 -87
-5 -49 1 -137 2 -196 2 -60 1 -106 5 -103 9 3 5 46 8 96 7 l90 -2 1 106 c1
105 6 363 8 390 1 8 4 11 7 8 4 -4 6 -73 4 -154z"/>
<path d="M4410 6179 c-28 -40 -54 -77 -56 -84 -3 -8 13 -19 42 -29 26 -9 50
-16 54 -16 3 0 7 31 8 69 2 38 5 83 7 100 2 17 2 31 1 31 -2 0 -27 -32 -56
-71z"/>
<path d="M895 2624 c-16 -14 -52 -45 -80 -69 -27 -23 -70 -59 -93 -79 l-44
-36 44 -1 c23 0 84 1 133 2 50 1 104 2 122 1 l32 -1 -29 77 c-41 111 -49 132
-52 132 -2 0 -16 -12 -33 -26z"/>
<path d="M5756 1891 c-33 -49 -61 -99 -63 -111 -9 -57 71 -133 139 -132 34 1
48 7 73 34 35 39 119 158 114 162 -16 14 -193 136 -198 136 -3 0 -33 -40 -65
-89z"/>
<path d="M5457 1540 c-42 -44 -78 -89 -78 -100 -1 -11 -2 -26 -3 -32 -6 -38
54 -105 106 -119 49 -13 67 -3 158 84 61 60 69 71 58 85 -15 19 -157 162 -161
162 -1 0 -37 -36 -80 -80z"/>
<path d="M4960 1433 c-46 -19 -97 -69 -110 -107 -16 -50 -5 -111 34 -179 67
-121 137 -178 217 -179 41 0 60 6 92 29 75 53 94 99 76 184 -11 51 -67 146
-117 196 -58 60 -132 82 -192 56z"/>
</g>
</svg>
