<?xml version="1.0" encoding="utf-8"?>
<!-- Generator: Adobe Illustrator 25.3.1, SVG Export Plug-In . SVG Version: 6.00 Build 0)  -->
<svg version="1.1" id="Ebene_1" xmlns="http://www.w3.org/2000/svg" xmlns:xlink="http://www.w3.org/1999/xlink" x="0px" y="0px"
	 viewBox="0 0 200 200" style="enable-background:new 0 0 200 200;" xml:space="preserve">
<style type="text/css">
	.st0{fill-rule:evenodd;clip-rule:evenodd;fill:#6984C3;}
</style>
<path class="st0" d="M200,100c0,55.2-44.8,100-100,100S0,155.2,0,100S44.8,0,100,0S200,44.8,200,100z M101.6,12.2l-5.2-0.5l2.3,15.9
	l5.5,0.5l2.2-7.2l0.7-2.2h0.1l0.3,2.2l0.9,7.5l5.5,0.5l5-15.3l-5-0.4l-1.9,6.6l-0.6,2.1h-0.1l-0.3-2.2l-0.8-6.8l-4.9-0.4l-1.9,6.6
	l-0.6,2.1h-0.1l-0.2-2.2L101.6,12.2z M75.7,15.5l4.2-0.8l5.9,4.6c0.2,0.2,0.9,0.8,2.1,1.7l0.1-0.1l-0.3-1.3l-1.2-6.2l4.5-0.9l3,15.4
	l-4.2,0.8l-6.6-5.1l-1.4-1.1l-0.1,0.1c0.2,0.6,0.3,1.1,0.3,1.3l1.2,6.1l-4.5,0.9L75.7,15.5z M70.3,17.3l-12.4,5.6l6.5,14.3l12.5-5.7
	l-1.6-3.4l-7.9,3.6l-1-2.2l6.6-3l-1.5-3.3l-6.6,3l-0.9-2l7.8-3.5L70.3,17.3z M47.8,34.6l-4.1,3.1l-2.4-3.2l12.3-9.2l2.4,3.2
	l-4.1,3.1l7,9.4l-4,3L47.8,34.6z M38.1,37.6l-8.8,10.3l11.9,10.2l8.9-10.4l-2.9-2.5l-5.6,6.6l-1.8-1.6l4.8-5.5l-2.7-2.4L37,47.9
	l-1.6-1.4L41,40L38.1,37.6z M23.6,57.1l2.6-4.3l13.5,8.1L37,65.1L23.6,57.1z M16.6,73l-2.4,6.7L29,84.9l1.5-4.4l-5.3-1.9
	c-1.4-0.5-3-0.9-4.8-1.3v-0.1l1.9,0.1l9.1,0.7l1.3-3.7l-7.5-5.2L23.7,68v-0.1c1.6,0.8,3.1,1.5,4.6,2l5.3,1.9l1.7-4.7L20.5,62
	l-2.3,6.5l4.7,3.2l3,2v0.1l-3.6-0.3L16.6,73z M15.6,117.8l14-3l0.1,0.5l-14,3l1.1,5.2l-0.4,0.1l-2.3-10.8l0.4-0.1L15.6,117.8z
	 M26.9,123.9l4-3.4l-0.2-0.4l-11.9,10.2l0.2,0.6l15.6-0.2l-0.2-0.5l-5.2,0.1L26.9,123.9z M19.4,130.4L19.4,130.4l7.2-6.2l2.3,6
	L19.4,130.4z M24.6,141.8l12.5-6.9l0.2,0.4l-12.5,6.9l2.6,4.6L27,147l-5.4-9.7l0.4-0.2L24.6,141.8z M172.7,147.3l-11.9-8.6l-0.3,0.4
	l5.5,3.9l-3,4.2c-1.4,1.9-0.9,3.9,1.1,5.3c1.9,1.4,3.9,1.3,5.4-0.7L172.7,147.3z M163.3,147.5l3-4.2l5.8,4.1l-3,4.2
	c-1.3,1.8-3.1,1.7-4.4,0.8l-0.7-0.5C162.7,150.9,162.1,149.3,163.3,147.5z M153.6,148.2l-0.3,0.3l4.7,4.8l-3.3,3.2l-7.6-2l-0.4,0.4
	l7.6,2c-1.7,1.7-1.5,3.7,0.1,5.4c1.7,1.7,3.7,1.9,5.4,0.3l4-3.9L153.6,148.2z M154.5,161.7c-1.1-1.1-1.5-2.9,0.1-4.4l3.7-3.6l5,5.1
	l-3.7,3.6c-1.5,1.5-3.3,1.1-4.4,0L154.5,161.7z M149.3,162.4c2.8,4.2,2.6,7.4-0.4,9.5c-3,2-6.1,1.1-9-3.1c-2.8-4.2-2.6-7.4,0.4-9.5
	C143.3,157.2,146.4,158.2,149.3,162.4z M140,168.1l0.5,0.7c2.5,3.7,5.4,4.5,8.1,2.7c2.7-1.8,3-4.8,0.5-8.5l-0.5-0.7
	c-2.5-3.7-5.4-4.5-8.1-2.7C137.9,161.4,137.5,164.4,140,168.1z M129.6,169.8l4.6,9.8l5.1-2.4l-0.2-0.4l-4.7,2.2l-4.4-9.4
	c-1-2.1-0.6-3.8,1.3-4.7c1.5-0.7,2.9-0.3,3.9,0.8l0.3-0.3c-1-1.2-2.8-1.6-4.4-0.9C129.1,165.5,128.5,167.4,129.6,169.8z
	 M124.4,167.8l4.3,14.1l-7.7,2.3l-0.1-0.4l7.2-2.2l-1.9-6.3l-7,2.1L119,177l7-2.1l-2-6.5l-7.2,2.2l-0.1-0.4L124.4,167.8z
	 M113.7,175.8l-2.4,3.5l-6.5-7.3l-0.5,0.1l6.8,7.6l-4.8,6.9l0.6-0.1l4.6-6.7l2.3-3.3l0,0l1.2,8.9l0.5-0.1l-2-14.6l-0.5,0.1
	L113.7,175.8z M98.2,186.2l0.2-14.3h0.5l-0.2,14.3l5.3,0.1v0.4l-11.1-0.2v-0.4L98.2,186.2z M89.3,186.4l-0.6-15.2l-0.6-0.2l-7,13H81
	l-0.7-14.7l-0.6-0.1l-7.1,13.5l0.5,0.1l6.7-12.9h0.1l0.7,14.6l0.7,0.2l6.9-12.8h0.1l0.5,14.5L89.3,186.4z M73.9,167.1l-6,13.4
	l-7.3-3.3l0.2-0.4l6.9,3.1l2.7-6l-6.7-3l0.2-0.4l6.7,3l2.8-6.2l-6.9-3.1l0.2-0.4L73.9,167.1z M63.7,162.3l-0.4-0.3l-3.8,5.6
	l-3.8-2.6l0.4-7.9l-0.4-0.3l-0.4,7.9c-2-1.4-3.9-0.8-5.3,1.2c-1.3,2-1.1,4,0.9,5.3l4.7,3.1L63.7,162.3z M50.7,166
	c0.9-1.3,2.5-2,4.4-0.8l4.3,2.9l-3.9,5.9l-4.3-2.9c-1.8-1.2-1.8-3-0.9-4.3L50.7,166z M45.4,158.6l4.2-0.3l3.5-3.7l0.3,0.3
	l-10.1,10.7l-0.3-0.3l6.2-6.5h-0.1l-4,0.3l-8.1,0.6l-0.4-0.4l8.4-0.6l1.6-10.1L47,149L45.4,158.6z M44,149.1l0.5,0.1
	c0.5-1.7,0.4-3.4-1.1-5.4c-1.7-2.2-3.8-2.7-5.9-1.1c-1.4,1.1-2.2,2.6-0.8,5.3l0.7,1.3c0.9,1.7,1.2,3.4-0.6,4.8
	c-1.8,1.4-3.5,0.8-5-1.1c-1.2-1.5-1.4-2.9-1-4.3l-0.5-0.1c-0.4,1.4-0.3,2.9,1.1,4.6c1.7,2.2,3.7,2.8,5.7,1.3
	c1.4-1.1,2.1-2.6,0.7-5.3l-0.7-1.3c-0.8-1.6-1.3-3.3,0.7-4.8c1.8-1.4,3.7-1,5.3,1C44.4,145.9,44.4,147.5,44,149.1z M126.3,16.4
	l5.5,1.9L132,35l-5-1.8l0.1-2.3l-5.2-1.8l-1.4,1.9l-4.9-1.7L126.3,16.4z M127.3,27.3l0.1-2.6l0.2-3.2h-0.1l-1.9,2.6l-1.5,2.1
	L127.3,27.3z M145.8,25.2l-4.2-2.8L133,35.6l4.2,2.8l3.3-5l4.6,3l-3.3,5l4.2,2.8l8.6-13.1l-4.2-2.8l-3.1,4.8l-4.6-3L145.8,25.2z
	 M159.6,35.3l2.9,3.2l-0.9,7.4c0,0.3-0.2,1.2-0.4,2.7h0.1l0.9-0.9l4.7-4.3l3.1,3.4l-11.6,10.5l-2.9-3.2l0.9-8.3l0.2-1.8h-0.1
	l-0.1,0.1c-0.4,0.4-0.7,0.7-0.8,0.8l-4.6,4.2l-3.1-3.4L159.6,35.3z M164,56.6c-1.7,1-2.6,2.2-2.6,3.8s0.5,3.4,1.7,5.5
	c1,1.8,2.2,3.1,3.6,3.8c1.4,0.7,2.9,0.6,4.5-0.3c0.9-0.5,1.6-1.2,1.8-2.1s0.3-1.7,0.2-2.5c-0.1-0.9-0.4-1.9-0.8-3.1
	c-0.3-1-0.5-1.8-0.6-2.4c-0.1-0.5,0.1-0.9,0.5-1.1c0.2-0.1,0.5-0.1,0.9,0.1c0.4,0.2,0.7,0.6,1,1.2c0.3,0.6,0.4,1.1,0.3,1.6
	c-0.1,0.4-0.4,0.8-0.8,1l-0.1,0.1l2.3,4.1l0.2-0.1c1.4-0.8,2.1-1.9,2.2-3.5c0.1-1.5-0.4-3.2-1.3-4.9c-1-1.8-2.2-3.1-3.5-3.8
	c-1.4-0.8-2.8-0.8-4.3,0.1c-1,0.6-1.7,1.3-2,2.2s-0.4,1.8-0.2,2.6c0.1,0.9,0.4,1.9,0.8,3.2c0.3,1,0.5,1.8,0.6,2.3s-0.1,0.8-0.4,1
	c-0.4,0.2-0.7,0.2-1-0.1c-0.3-0.3-0.6-0.7-0.9-1.3c-0.4-0.7-0.6-1.4-0.6-1.8c0-0.5,0.3-0.9,0.9-1.2c0.1-0.1,0.2-0.1,0.3-0.1
	l-2.3-4.2C164.2,56.5,164.1,56.5,164,56.6L164,56.6L164,56.6z M181.9,68.9l1.6,4.8l-14.8,5.2l-1.6-4.8L181.9,68.9z M186.1,83.4
	l-0.6-4.3L170,81.5l0.7,4.6l6.1-0.9l0,0c0.3-0.1,0.7-0.1,1.4-0.3l0.1,0.1l-1.2,1.3l-5.4,6.4l0.6,4.3l15.5-2.4l-0.7-4.6l-6.3,0.9
	l-1.3,0.3l-0.1-0.1c1-1.1,1.6-1.8,1.8-2L186.1,83.4z M188,101.2l-0.4,4.3l-6.1,4.3c-0.2,0.1-0.7,0.4-1.4,0.9l0,0l0,0
	c-0.2,0.2-0.5,0.3-0.8,0.5l0.1,0.1l1.3,0.1l6.3,0.6l-0.5,4.6l-15.6-1.6l0.4-4.3l6.8-4.8l1.5-1l-0.1-0.1c-0.6,0-1,0-1.3-0.1l0,0h-0.1
	l-6.2-0.6l0.5-4.6L188,101.2z"/>
</svg>
