<?xml version="1.0" encoding="utf-8"?>
<!-- Generator: Adobe Illustrator 25.2.1, SVG Export Plug-In . SVG Version: 6.00 Build 0)  -->
<svg version="1.1" xmlns="http://www.w3.org/2000/svg" xmlns:xlink="http://www.w3.org/1999/xlink" x="0px" y="0px"
	 viewBox="0 0 114 114" style="enable-background:new 0 0 114 114;" xml:space="preserve">
<style type="text/css">
	.st0{fill:#9E8AB5;}
	.st1{fill:#FFFFFF;}
</style>
<g id="Ebene_1">
</g>
<g id="Ebene_2">
</g>
<g id="Ebene_4">
	<g>
		<g>
			<circle class="st0" cx="57" cy="57" r="57"/>
			<g>
				<path class="st1" d="M91.64,79.07l6.81,4.88l-1.87,2.62c-0.8,1.11-1.94,1.18-3.05,0.38c-1.11-0.8-1.41-1.9-0.62-3.01l1.72-2.4
					l-3.14-2.25L91.64,79.07z M94.82,81.68l-1.72,2.4c-0.72,1-0.36,1.96,0.39,2.49l0.41,0.29c0.74,0.53,1.76,0.57,2.48-0.44
					l1.72-2.4L94.82,81.68z"/>
				<path class="st1" d="M87.35,84.67l0.19-0.19l5.87,5.97l-2.29,2.25c-0.98,0.96-2.11,0.83-3.07-0.15
					c-0.96-0.97-1.07-2.11-0.08-3.09l-4.35-1.14l0.21-0.21l4.35,1.14l1.87-1.84L87.35,84.67z M88.12,89.67
					c-0.88,0.87-0.69,1.87-0.05,2.52l0.35,0.36c0.64,0.65,1.64,0.86,2.52,0l2.11-2.07l-2.83-2.88L88.12,89.67z"/>
				<path class="st1" d="M85.08,92.56c1.62,2.38,1.47,4.24-0.25,5.4c-1.72,1.16-3.5,0.62-5.11-1.77s-1.46-4.24,0.25-5.4
					C81.69,89.63,83.46,90.18,85.08,92.56z M79.81,95.83l0.28,0.42c1.42,2.1,3.08,2.55,4.6,1.52c1.52-1.03,1.71-2.74,0.29-4.83
					l-0.28-0.42c-1.42-2.1-3.08-2.55-4.6-1.52C78.58,92.02,78.39,93.73,79.81,95.83z"/>
				<path class="st1" d="M76.5,102.39l-2.62-5.6c-0.65-1.39-0.29-2.45,0.88-3c0.9-0.42,1.91-0.22,2.48,0.49l-0.18,0.16
					c-0.53-0.59-1.37-0.83-2.21-0.44c-1.09,0.51-1.31,1.45-0.74,2.66l2.52,5.38l2.67-1.25l0.1,0.22L76.5,102.39z"/>
				<path class="st1" d="M70.88,95.63l2.44,8.01l-4.37,1.33l-0.07-0.23l4.12-1.25l-1.1-3.6l-3.98,1.21l-0.07-0.23l3.98-1.21
					l-1.13-3.72l-4.12,1.25l-0.07-0.23L70.88,95.63z"/>
				<path class="st1" d="M63.47,102.19l1.36-1.98l-0.39-2.84l0.26-0.04l1.15,8.3l-0.26,0.04l-0.7-5.08l-0.02,0l-1.31,1.9l-2.61,3.81
					l-0.33,0.05l2.71-3.95l-3.9-4.34l0.31-0.04L63.47,102.19z"/>
				<path class="st1" d="M56,106.14L56.14,98l0.26,0.01l-0.14,8.13l3.02,0.05l0,0.24l-6.31-0.11l0-0.24L56,106.14z"/>
				<path class="st1" d="M50.58,97.59l0.33,8.66l-0.28-0.06l-0.29-8.28l-0.03-0.01l-3.96,7.31l-0.38-0.09l-0.42-8.3l-0.04-0.01
					l-3.84,7.34l-0.27-0.06l4.03-7.68l0.35,0.08l0.42,8.39l0.04,0.01l3.99-7.39L50.58,97.59z"/>
				<path class="st1" d="M42.11,95.26l-3.42,7.64l-4.17-1.87l0.1-0.22l3.93,1.76l1.54-3.44l-3.8-1.7l0.1-0.22l3.8,1.7l1.59-3.55
					l-3.93-1.76l0.1-0.22L42.11,95.26z"/>
				<path class="st1" d="M36.11,92.36l0.22,0.15l-4.64,6.97l-2.68-1.78c-1.14-0.76-1.25-1.9-0.49-3.04
					c0.76-1.14,1.85-1.48,3.01-0.71l0.22-4.49l0.25,0.17l-0.22,4.49l2.19,1.46L36.11,92.36z M31.38,94.13
					c-1.03-0.68-1.97-0.29-2.48,0.47l-0.28,0.42c-0.51,0.76-0.51,1.78,0.52,2.47l2.46,1.63l2.23-3.36L31.38,94.13z"/>
				<path class="st1" d="M25.89,90.41l2.4-0.18l1.97-2.09l0.19,0.18l-5.74,6.1l-0.19-0.18l3.51-3.73L28,90.49l-2.3,0.17l-4.61,0.36
					l-0.25-0.23l4.78-0.36l0.94-5.76l0.23,0.21L25.89,90.41z"/>
				<path class="st1" d="M25.32,85.07l-0.26-0.08c0.25-0.93,0.22-1.82-0.57-2.83c-0.89-1.15-1.95-1.39-3-0.58
					c-1.11,0.86-0.85,1.82-0.38,2.74l0.39,0.76c0.78,1.52,0.38,2.41-0.4,3.01c-1.13,0.87-2.29,0.5-3.24-0.73
					c-0.76-0.98-0.86-1.88-0.61-2.65l0.26,0.08c-0.26,0.8-0.1,1.59,0.56,2.45c0.87,1.12,1.87,1.42,2.87,0.65
					c1.03-0.8,0.81-1.76,0.32-2.71l-0.39-0.76c-0.79-1.55-0.33-2.43,0.45-3.03c1.2-0.93,2.41-0.61,3.37,0.62
					C25.54,83.11,25.58,84.11,25.32,85.07z"/>
				<path class="st1" d="M14.03,80.83l7.1-3.96l0.13,0.23l-7.1,3.96l1.47,2.64l-0.21,0.12l-3.08-5.51l0.21-0.12L14.03,80.83z"/>
				<path class="st1" d="M17.59,68.69l-2.27,1.95l1.35,3.59l2.98-0.04l0.1,0.26l-8.9,0.12l-0.13-0.34l6.76-5.79L17.59,68.69z
					 M11.05,74.28l0.01,0.03l5.38-0.09l-1.3-3.44L11.05,74.28z"/>
				<path class="st1" d="M8.92,67.13l7.96-1.7l0.05,0.26l-7.96,1.7l0.63,2.96L9.38,70.4l-1.32-6.17l0.23-0.05L8.92,67.13z"/>
				<path class="st1" d="M8.12,45.42l1.35-3.82l3.24,0.28l2.08,0.17l0.02-0.05l-1.73-1.16l-2.69-1.82l1.3-3.69l8.43,2.98l-0.95,2.68
					l-3.04-1.08c-0.81-0.29-1.68-0.67-2.6-1.14l-0.02,0.05l0.87,0.61l4.29,2.97l-0.75,2.12l-5.19-0.38l-1.06-0.07l-0.02,0.05
					c1.02,0.2,1.93,0.44,2.74,0.72l3.04,1.08l-0.88,2.49L8.12,45.42z"/>
				<path class="st1" d="M13.44,32.52l1.48-2.46l7.67,4.6l-1.48,2.46L13.44,32.52z"/>
				<path class="st1" d="M16.67,27.29l5.03-5.87l1.63,1.4l-3.17,3.69l0.94,0.8l2.71-3.16l1.56,1.34l-2.71,3.16l1.04,0.89l3.22-3.76
					l1.63,1.4l-5.09,5.94L16.67,27.29z"/>
				<path class="st1" d="M27.24,19.74l-2.35,1.76l-1.37-1.83l6.99-5.24l1.37,1.83l-2.34,1.75l3.99,5.33l-2.3,1.72L27.24,19.74z"/>
				<path class="st1" d="M33.01,13.04l7.04-3.19l0.89,1.95l-4.43,2.01l0.51,1.12l3.79-1.72l0.85,1.87l-3.79,1.72l0.56,1.24L42.95,16
					l0.89,1.95l-7.13,3.23L33.01,13.04z"/>
				<path class="st1" d="M43.15,8.81l2.42-0.47l3.34,2.62c0.14,0.11,0.54,0.44,1.2,0.99l0.06-0.05l-0.18-0.73L49.3,7.61l2.59-0.5
					l1.7,8.78l-2.41,0.47l-3.76-2.91l-0.79-0.64l-0.06,0.05c0.1,0.36,0.16,0.61,0.19,0.76l0.67,3.47l-2.59,0.5L43.15,8.81z"/>
				<path class="st1" d="M54.92,6.67l2.98,0.26l0.44,3.88l0.14,1.26l0.05,0l0.35-1.22l1.1-3.74l2.82,0.25l0.48,3.88l0.15,1.27
					l0.05,0l0.34-1.22l1.06-3.74l2.85,0.25l-2.86,8.73l-3.15-0.27L61.22,12l-0.16-1.28l-0.05,0l-0.38,1.23l-1.25,4.09l-3.15-0.28
					L54.92,6.67z"/>
				<path class="st1" d="M71.99,9.33l3.15,1.11l0.11,9.52l-2.87-1.01l0.06-1.31l-2.96-1.04l-0.77,1.06l-2.77-0.97L71.99,9.33z
					 M72.54,15.54l0.08-1.49l0.09-1.83l-0.05-0.02L71.6,13.7l-0.88,1.21L72.54,15.54z"/>
				<path class="st1" d="M80.71,12.81l2.4,1.58l-1.79,2.73l2.64,1.73l1.79-2.73l2.4,1.58l-4.91,7.48l-2.4-1.58l1.86-2.84l-2.64-1.73
					l-1.86,2.84l-2.4-1.58L80.71,12.81z"/>
				<path class="st1" d="M90.97,20.1l1.66,1.83l-0.51,4.22c-0.02,0.18-0.09,0.7-0.22,1.54l0.07,0.02l0.53-0.54l2.68-2.43l1.77,1.95
					l-6.62,6.01l-1.65-1.82l0.54-4.72l0.14-1.01l-0.07-0.02c-0.26,0.27-0.44,0.46-0.55,0.55l-2.62,2.38l-1.77-1.96L90.97,20.1z"/>
				<path class="st1" d="M91.97,34.43c0.02-0.9,0.51-1.62,1.49-2.17c0.06-0.03,0.11-0.06,0.15-0.07l1.31,2.38
					c-0.04,0.01-0.1,0.04-0.17,0.08c-0.33,0.18-0.49,0.41-0.49,0.68s0.12,0.62,0.35,1.04c0.18,0.32,0.35,0.56,0.54,0.74
					c0.18,0.17,0.38,0.2,0.59,0.08c0.19-0.1,0.27-0.3,0.24-0.58c-0.03-0.28-0.14-0.72-0.32-1.3c-0.21-0.71-0.36-1.32-0.44-1.82
					c-0.08-0.5-0.04-1,0.13-1.5c0.17-0.5,0.55-0.91,1.13-1.23c0.86-0.47,1.67-0.49,2.45-0.04c0.77,0.44,1.44,1.17,2,2.19
					c0.55,1,0.8,1.94,0.75,2.81c-0.05,0.87-0.47,1.53-1.26,1.98l-0.14,0.08l-1.29-2.36l0.05-0.03c0.23-0.12,0.37-0.31,0.43-0.56
					c0.06-0.25,0-0.55-0.19-0.89c-0.18-0.33-0.37-0.56-0.57-0.69c-0.2-0.12-0.37-0.15-0.51-0.07c-0.21,0.11-0.29,0.32-0.26,0.61
					c0.03,0.3,0.15,0.75,0.34,1.34c0.22,0.7,0.37,1.29,0.45,1.78s0.05,0.96-0.1,1.44c-0.15,0.48-0.5,0.87-1.04,1.18
					c-0.93,0.51-1.79,0.57-2.58,0.19c-0.79-0.38-1.47-1.09-2.05-2.14C92.28,36.38,91.95,35.33,91.97,34.43z"/>
				<path class="st1" d="M103.71,39.25l0.94,2.71l-8.45,2.94l-0.94-2.71L103.71,39.25z"/>
				<path class="st1" d="M105.72,45.12l0.37,2.44l-2.76,3.23c-0.12,0.14-0.46,0.53-1.03,1.16l0.05,0.06l0.74-0.15l3.57-0.54
					l0.4,2.61l-8.84,1.35l-0.37-2.43l3.06-3.63l0.67-0.76l-0.05-0.06c-0.37,0.08-0.62,0.13-0.77,0.16l-3.5,0.53l-0.4-2.61
					L105.72,45.12z"/>
				<path class="st1" d="M107.15,57.67l-0.25,2.46l-3.48,2.44c-0.15,0.11-0.58,0.39-1.29,0.86l0.03,0.07l0.75,0.04l3.59,0.37
					l-0.27,2.62l-8.9-0.92l0.25-2.44l3.88-2.75l0.84-0.57l-0.03-0.07c-0.37-0.01-0.63-0.03-0.78-0.04l-3.52-0.36l0.27-2.62
					L107.15,57.67z"/>
			</g>
		</g>
	</g>
</g>
</svg>
