<svg width="200" height="200" viewBox="0 0 200 200" fill="none" xmlns="http://www.w3.org/2000/svg">
<path fill-rule="evenodd" clip-rule="evenodd" d="M200 100C200 155.228 155.228 200 100 200C44.7715 200 0 155.228 0 100C0 44.7715 44.7715 0 100 0C155.228 0 200 44.7715 200 100ZM101.579 12.1579L96.3509 11.7017L98.6491 27.6491L104.175 28.1403L106.368 20.9649L107.035 18.807H107.123L107.404 21.0526L108.281 28.5263L113.807 29L118.825 13.6842L113.825 13.2456L111.965 19.807L111.368 21.9473H111.281L111.018 19.7193L110.175 12.9123L105.228 12.4737L103.298 19.0351L102.684 21.1754H102.596L102.351 18.9649L101.579 12.1579ZM75.7018 15.4561L79.9474 14.6315L85.807 19.228C86.0526 19.421 86.7544 19.9999 87.9123 20.9649L88.0175 20.8771L87.7018 19.5964L86.4912 13.3508L91.0351 12.4736L94.0175 27.8771L89.7895 28.7017L83.193 23.5964L81.807 22.4736L81.7018 22.5613C81.8772 23.1929 81.9825 23.6315 82.0351 23.8947L83.2105 29.9824L78.6667 30.8596L75.7018 15.4561ZM70.2632 17.2806L57.9123 22.8771L64.4035 37.1578L76.9123 31.4912L75.3509 28.0701L67.4211 31.6491L66.4386 29.4736L73.0877 26.4561L71.5965 23.1754L64.9474 26.1929L64.0526 24.228L71.8246 20.7017L70.2632 17.2806ZM47.7895 34.6316L43.6667 37.7193L41.2632 34.5088L53.5263 25.3158L55.9298 28.5263L51.8246 31.5965L58.8246 40.9474L54.7895 43.9649L47.7895 34.6316ZM38.0702 37.5789L29.2456 47.8772L41.1579 58.1052L50.0877 47.6842L47.2281 45.228L41.5789 51.8245L39.7544 50.2631L44.5088 44.7193L41.7719 42.3684L37.0175 47.9123L35.3684 46.5087L40.9298 40.0351L38.0702 37.5789ZM23.579 57.0526L26.1754 52.7368L39.6316 60.807L37.0351 65.1228L23.579 57.0526ZM16.614 72.9824L14.2456 79.6842L29.0351 84.9298L30.5789 80.5614L25.2456 78.6667C23.8246 78.1754 22.2281 77.7544 20.4386 77.4035L20.4737 77.3158L22.3333 77.4386L31.4386 78.1052L32.7544 74.386L25.2281 69.1754L23.7017 68.1052L23.7368 68.0175C25.3509 68.8421 26.8772 69.5088 28.2982 70.0175L33.6316 71.9123L35.2982 67.2105L20.5088 61.9824L18.2281 68.4561L22.9474 71.6491L25.9824 73.6842L25.9474 73.7719L22.2982 73.4737L16.614 72.9824ZM15.6491 117.772L29.614 114.789L29.7017 115.246L15.7368 118.228L16.8421 123.421L16.4561 123.509L14.1404 112.684L14.5439 112.596L15.6491 117.772ZM26.8772 123.93L30.8597 120.509L30.6667 120.07L18.807 130.228L19.0351 130.825L34.6491 130.614L34.4737 130.158L29.2456 130.228L26.8772 123.93ZM19.4035 130.368L19.386 130.316L26.5614 124.175L28.8421 130.211L19.4035 130.368ZM24.614 141.807L37.0702 134.86L37.2982 135.263L24.8421 142.211L27.4211 146.842L27.0526 147.053L21.6491 137.386L22.0175 137.175L24.614 141.807ZM172.719 147.281L160.772 138.719L160.509 139.105L166.018 143.053L163 147.263C161.614 149.211 162.14 151.14 164.088 152.544C166.035 153.947 168.035 153.825 169.439 151.877L172.719 147.281ZM163.333 147.509L166.351 143.298L172.105 147.404L169.088 151.614C167.825 153.386 166.035 153.316 164.737 152.386L164.018 151.877C162.702 150.947 162.07 149.263 163.333 147.509ZM153.579 148.21L153.246 148.544L157.982 153.351L154.702 156.579L147.07 154.579L146.702 154.947L154.333 156.947C152.596 158.667 152.789 160.667 154.474 162.368C156.158 164.088 158.14 164.316 159.86 162.632L163.877 158.684L153.579 148.21ZM154.509 161.737C153.386 160.596 153.053 158.842 154.596 157.316L158.281 153.684L163.246 158.737L159.544 162.368C158 163.877 156.246 163.509 155.123 162.368L154.509 161.737ZM149.263 162.386C152.105 166.561 151.842 169.825 148.825 171.86C145.807 173.895 142.684 172.947 139.86 168.754C137.035 164.561 137.298 161.316 140.298 159.281C143.316 157.246 146.421 158.21 149.263 162.386ZM140.018 168.123L140.509 168.86C143 172.544 145.912 173.333 148.579 171.526C151.246 169.719 151.579 166.719 149.088 163.053L148.596 162.316C146.105 158.632 143.193 157.842 140.526 159.649C137.86 161.439 137.526 164.439 140.018 168.123ZM129.614 169.807L134.211 179.632L139.298 177.211L139.123 176.825L134.439 179.018L130.018 169.579C129.018 167.456 129.404 165.807 131.316 164.912C132.79 164.228 134.263 164.649 135.193 165.684L135.509 165.404C134.509 164.158 132.737 163.807 131.158 164.544C129.105 165.509 128.474 167.368 129.614 169.807ZM124.351 167.772L128.632 181.825L120.965 184.158L120.842 183.754L128.07 181.561L126.14 175.246L119.158 177.368L119.035 176.965L126.018 174.842L124.035 168.316L116.807 170.509L116.684 170.105L124.351 167.772ZM113.737 175.807L111.351 179.281L104.807 171.965L104.263 172.035L111.105 179.649L106.351 186.579L106.93 186.491L111.509 179.807L113.807 176.474H113.842L115.07 185.386L115.526 185.316L113.509 170.754L113.053 170.825L113.737 175.807ZM98.2456 186.211L98.4912 171.93L98.9474 171.947L98.7018 186.211L104 186.298V186.719L92.9298 186.526V186.105L98.2456 186.211ZM89.3158 186.403L88.7368 171.21L88.1228 171.053L81.1228 184.017L81.0526 184L80.3158 169.281L79.7018 169.14L72.6316 182.614L73.1053 182.719L79.8421 169.842L79.9123 169.86L80.6491 184.421L81.3158 184.579L88.2632 171.754L88.3158 171.772L88.8246 186.298L89.3158 186.403ZM73.8772 167.123L67.8772 180.526L60.5614 177.246L60.7368 176.86L67.6316 179.947L70.3333 173.912L63.6666 170.93L63.8421 170.544L70.5088 173.526L73.2982 167.298L66.4035 164.211L66.5789 163.825L73.8772 167.123ZM63.7368 162.298L63.3509 162.035L59.5965 167.684L55.7544 165.123L56.1403 157.246L55.7017 156.947L55.3158 164.825C53.2807 163.474 51.3684 164.07 50.0351 166.07C48.7018 168.07 48.8947 170.07 50.8947 171.403L55.5965 174.526L63.7368 162.298ZM50.7018 165.965C51.5965 164.632 53.2456 163.947 55.0526 165.14L59.3509 168L55.4386 173.895L51.1228 171.035C49.3158 169.825 49.3158 168.035 50.2105 166.702L50.7018 165.965ZM45.421 158.614L49.6316 158.298L53.0877 154.632L53.421 154.947L43.3509 165.649L43.0175 165.333L49.1754 158.789L49.1228 158.754L45.0877 159.053L37 159.684L36.5614 159.281L44.9474 158.649L46.5965 148.544L47 148.912L45.421 158.614ZM43.9649 149.105L44.4211 149.246C44.8772 147.561 44.807 145.807 43.3158 143.877C41.6316 141.719 39.5088 141.158 37.4035 142.789C36.0351 143.842 35.2281 145.386 36.614 148.105L37.2983 149.439C38.1579 151.105 38.5439 152.789 36.7369 154.193C34.9825 155.544 33.2281 155.018 31.7018 153.053C30.5439 151.544 30.2632 150.158 30.7193 148.754L30.2632 148.614C29.8246 149.965 30 151.544 31.3333 153.263C33 155.421 35.0351 156.07 37.0176 154.544C38.386 153.491 39.0877 151.93 37.7193 149.263L37.0351 147.93C36.2105 146.316 35.7544 144.632 37.7018 143.123C39.5439 141.702 41.4035 142.123 42.9649 144.14C44.3509 145.912 44.4035 147.474 43.9649 149.105ZM126.298 16.3684L131.825 18.3158L132.018 35.0175L126.982 33.2456L127.088 30.9474L121.895 29.1228L120.544 30.9824L115.684 29.2807L126.298 16.3684ZM127.263 27.2631L127.404 24.6491L127.561 21.4386L127.474 21.4035L125.614 24.0351L124.07 26.1579L127.263 27.2631ZM145.807 25.2456L141.597 22.4737L132.982 35.5965L137.193 38.3684L140.456 33.386L145.088 36.4211L141.825 41.4035L146.035 44.1755L154.649 31.0526L150.439 28.2807L147.298 33.0702L142.667 30.0351L145.807 25.2456ZM159.597 35.2631L162.509 38.4737L161.614 45.8772C161.579 46.193 161.456 47.1052 161.228 48.5789L161.351 48.614L162.281 47.6666L166.982 43.4035L170.088 46.8245L158.474 57.3684L155.579 54.1754L156.526 45.8947L156.772 44.1228L156.649 44.0877L156.51 44.2318C156.128 44.6293 155.857 44.9113 155.684 45.0526L151.088 49.2281L147.982 45.7895L159.597 35.2631ZM163.965 56.5965C162.246 57.5614 161.386 58.8246 161.351 60.4035C161.316 61.9825 161.895 63.8246 163.088 65.9298C164.105 67.7719 165.298 69.0176 166.684 69.6842C168.07 70.3509 169.579 70.2456 171.211 69.3509C172.158 68.807 172.772 68.1228 173.035 67.2807C173.298 66.4386 173.351 65.614 173.211 64.7544C173.07 63.8948 172.807 62.8597 172.421 61.6316C172.088 60.5965 171.877 59.807 171.825 59.2807C171.772 58.7719 171.912 58.4035 172.281 58.2105C172.526 58.0702 172.825 58.1228 173.175 58.3334C173.526 58.5614 173.86 58.9649 174.175 59.5439C174.509 60.1404 174.614 60.6667 174.509 61.1053C174.404 61.5439 174.158 61.8772 173.754 62.0877L173.667 62.1404L175.93 66.2807L176.175 66.1404C177.561 65.3509 178.298 64.193 178.386 62.6667C178.474 61.1404 178.035 59.4912 177.07 57.7369C176.088 55.9474 174.912 54.6667 173.561 53.8948C172.193 53.1053 170.772 53.1404 169.263 53.9649C168.246 54.5263 167.579 55.2456 167.281 56.1228C166.982 57 166.912 57.8772 167.053 58.7544C167.193 59.6316 167.456 60.7018 167.825 61.9474C168.14 62.9649 168.333 63.7369 168.386 64.2281C168.439 64.7193 168.298 65.0702 167.965 65.2456C167.596 65.4562 167.246 65.4035 166.93 65.1053C166.596 64.7895 166.298 64.3684 165.982 63.807C165.579 63.0702 165.368 62.4562 165.368 61.9825C165.368 61.5088 165.649 61.1053 166.228 60.7895C166.351 60.7193 166.456 60.6667 166.526 60.6491L164.228 56.4737C164.176 56.4867 164.115 56.5188 164.044 56.5559L164.043 56.5561C164.018 56.5692 163.992 56.5828 163.965 56.5965ZM181.947 68.8596L183.597 73.614L168.772 78.7719L167.123 74.0175L181.947 68.8596ZM186.123 83.4386L185.474 79.1579L169.93 81.5439L170.632 86.1228L176.772 85.193L176.772 85.1929C177.035 85.1403 177.474 85.0526 178.123 84.9123L178.211 85.0175L177.035 86.3509L171.667 92.7193L172.316 96.9825L187.825 94.614L187.123 90.0351L180.86 90.9825L179.561 91.2456L179.474 91.1404C180.474 90.0351 181.07 89.3509 181.281 89.1053L186.123 83.4386ZM187.982 101.175L187.544 105.491L181.439 109.772C181.244 109.915 180.779 110.222 180.044 110.707L180.044 110.707L180.006 110.732C179.759 110.895 179.482 111.078 179.175 111.281L179.228 111.404L180.544 111.474L186.842 112.123L186.368 116.719L170.754 115.105L171.193 110.825L178 106L179.474 105L179.421 104.877C178.852 104.862 178.431 104.833 178.158 104.814L178.158 104.814L178.053 104.807L171.877 104.175L172.351 99.5789L187.982 101.175Z" fill="#9E8AB5"/>
</svg>
